<?xml version="1.0" encoding="UTF-8" standalone="no"?>
<!-- Created with Inkscape (http://www.inkscape.org/) -->

<svg
   width="157.96912"
   height="1080"
   viewBox="0 0 157.96912 1080"
   version="1.1"
   id="svg1"
   inkscape:version="1.3 (0e150ed6c4, 2023-07-21)"
   sodipodi:docname="website_pattern.svg"
   xmlns:inkscape="http://www.inkscape.org/namespaces/inkscape"
   xmlns:sodipodi="http://sodipodi.sourceforge.net/DTD/sodipodi-0.dtd"
   xmlns="http://www.w3.org/2000/svg"
   xmlns:svg="http://www.w3.org/2000/svg">
  <sodipodi:namedview
     id="namedview1"
     pagecolor="#000000"
     bordercolor="#000000"
     borderopacity="0.25"
     inkscape:showpageshadow="2"
     inkscape:pageopacity="0.0"
     inkscape:pagecheckerboard="0"
     inkscape:deskcolor="#d1d1d1"
     inkscape:document-units="px"
     showgrid="false"
     inkscape:zoom="0.43347119"
     inkscape:cx="1246.911"
     inkscape:cy="649.40879"
     inkscape:window-width="1920"
     inkscape:window-height="1011"
     inkscape:window-x="0"
     inkscape:window-y="0"
     inkscape:window-maximized="1"
     inkscape:current-layer="g51"
     borderlayer="true">
    <inkscape:grid
       id="grid1"
       units="px"
       originx="-1762.0309"
       originy="0"
       spacingx="5"
       spacingy="5"
       empcolor="#0099e5"
       empopacity="0.30196078"
       color="#0099e5"
       opacity="0.14901961"
       empspacing="5"
       dotted="false"
       gridanglex="30"
       gridanglez="30"
       visible="false" />
  </sodipodi:namedview>
  <defs
     id="defs1" />
  <g
     inkscape:groupmode="layer"
     id="g51"
     inkscape:label="Finish"
     style="display:inline"
     transform="translate(-1762.0309)">
    <path
       id="circle1"
       style="color:#000000;display:inline;opacity:0.5;fill:#ff0000;stroke-width:0.561025;-inkscape-stroke:none"
       d="m 1762.0309,911.66615 c 0,7.31487 1.5012,14.28746 4.2077,20.62968 v 147.67787 h 8.4154 V 945.84701 c 9.6932,11.37052 24.1025,18.60702 40.1648,18.60702 29.0871,0 52.7867,-23.70074 52.7867,-52.78788 0,-29.0872 -23.6996,-52.78788 -52.7867,-52.78788 -5.6944,0 -11.1772,0.9198 -16.3213,2.59911 V 90.204569 l 23.0021,22.931911 v 168.30535 l 56.1025,56.10253 V 815.73082 H 1920 v -4.48821 h -37.9097 V 335.68602 l -56.1025,-56.10253 V 111.27365 L 1798.4975,83.867788 V 0 h -5.6102 v 863.07934 h 1.316 c -18.8851,8.05239 -32.1724,26.80893 -32.1724,48.58681 z m 11.2205,0 c 0,-23.02319 18.5442,-41.56738 41.5674,-41.56738 23.0231,0 41.5662,18.54419 41.5662,41.56738 0,23.02313 -18.5431,41.56737 -41.5662,41.56737 -23.0232,0 -41.5674,-18.54424 -41.5674,-41.56737 z m 11.7421,55.513 1.3094,112.82085 4.4882,-0.053 -1.2327,-106.21245 c 10.4224,3.44722 46.7752,12.66829 75.0437,-15.60021 11.7273,-11.72728 17.4425,-28.60376 17.7852,-45.31373 0.3426,-16.71003 -4.6621,-33.35868 -14.899,-44.73302 -25.9538,-28.8376 -58.1713,-23.14779 -58.1713,-23.14779 l 0.8021,4.41588 c 0,0 29.4954,-5.53053 54.0337,21.73424 9.2558,10.28426 14.0691,25.89412 13.7463,41.63862 -0.3229,15.7445 -5.7566,31.5188 -16.4703,42.23247 -31.2784,31.27846 -73.2817,13.54355 -73.2817,13.54355 z m 23.0809,-572.93286 12.4423,13.38136 0.9829,428.30552 4.4882,-0.0112 -0.9873,-430.06316 -13.6388,-14.66992 z"
       inkscape:label="Pow1R"
       sodipodi:nodetypes="sccccssscccccccccccccccccssssssccccsssccsssccccccccc"
       inkscape:export-filename="bg-bottom-1r.png"
       inkscape:export-xdpi="96"
       inkscape:export-ydpi="96" />
  </g>
</svg>
