<?xml version="1.0" encoding="UTF-8" standalone="no"?>
<!-- Created with Inkscape (http://www.inkscape.org/) -->

<svg
   width="1920"
   height="319.44141"
   viewBox="0 0 1920 319.44141"
   version="1.1"
   id="svg1"
   inkscape:version="1.3 (0e150ed6c4, 2023-07-21)"
   sodipodi:docname="website_pattern.svg"
   xmlns:inkscape="http://www.inkscape.org/namespaces/inkscape"
   xmlns:sodipodi="http://sodipodi.sourceforge.net/DTD/sodipodi-0.dtd"
   xmlns="http://www.w3.org/2000/svg"
   xmlns:svg="http://www.w3.org/2000/svg">
  <sodipodi:namedview
     id="namedview1"
     pagecolor="#000000"
     bordercolor="#000000"
     borderopacity="0.25"
     inkscape:showpageshadow="2"
     inkscape:pageopacity="0.0"
     inkscape:pagecheckerboard="0"
     inkscape:deskcolor="#d1d1d1"
     inkscape:document-units="px"
     showgrid="false"
     inkscape:zoom="0.43347119"
     inkscape:cx="1092.3448"
     inkscape:cy="773.98454"
     inkscape:window-width="1920"
     inkscape:window-height="1011"
     inkscape:window-x="0"
     inkscape:window-y="0"
     inkscape:window-maximized="1"
     inkscape:current-layer="g51"
     borderlayer="true">
    <inkscape:grid
       id="grid1"
       units="px"
       originx="4.8558911e-07"
       originy="-760.55859"
       spacingx="5"
       spacingy="5"
       empcolor="#0099e5"
       empopacity="0.30196078"
       color="#0099e5"
       opacity="0.14901961"
       empspacing="5"
       dotted="false"
       gridanglex="30"
       gridanglez="30"
       visible="false" />
  </sodipodi:namedview>
  <defs
     id="defs1" />
  <g
     inkscape:groupmode="layer"
     id="g51"
     inkscape:label="Finish"
     transform="translate(4.8558911e-7,-760.55859)">
    <path
       id="rect42"
       style="opacity:0.08;fill:#f9f9f9;stroke:none;stroke-width:5;stroke-dasharray:none"
       inkscape:label="BG"
       d="m 1099.9993,700.00022 -149.99754,-0.002 49.99731,50.0003 -49.99799,10e-4 -50.00121,-50.00052 -49.99983,-5.7e-4 50.00121,50.00051 -50.00179,-6.8e-4 -49.99936,-49.99846 -50.00179,-6.8e-4 50.00121,50.00052 -49.99983,-5.8e-4 -49.99731,-50.0003 -0.002,-1.1e-4 -674.019281,0.002 -2.622604,47.49992 239.872745,-0.003 c 11.30426,-4.82369 23.73048,-7.49809 36.7681,-7.49809 38.81889,0 72.25078,23.6828 86.60311,57.34591 l 0.002,-2.34718 1557.05535,7.7e-4 2.5709,-46.56385 -747.7954,-4.8e-4 1.5646,1.56519 -49.9999,-5.7e-4 z m 843.109,104.99867 -167.5948,9.3e-4 -48.8538,49.00041 -300.003,-0.002 -100.001,100.00242 -847.65617,-0.002 -2.4e-4,31.64185 1449.71581,80.0429 z m -178.8931,-8.4e-4 -1374.7549,0.002 c 2.9931,9.16889 4.63172,18.94286 4.63172,29.09256 0,51.8463 -42.24548,94.08872 -94.09181,94.08872 -51.84632,0 -94.09273,-42.24376 -94.09273,-94.09008 0,-28.62976 12.89822,-54.31336 33.16513,-71.59106 l -216.542075,-0.002 -1.132833,20.51758 179.653798,-2.08539 -2.36227,5.6205 c 0,0 -31.61178,74.86911 24.1404,130.62127 19.0966,19.0966 47.21166,28.78115 75.27537,29.3566 28.06371,0.57546 55.88842,-8.00428 74.21952,-24.50227 48.59808,-43.73827 38.7415,-96.31147 38.7415,-96.31147 l 7.86813,-1.42974 c 0,0 10.14405,57.42652 -41.25745,103.6879 -20.27416,18.24674 -49.95099,27.1675 -79.7357,26.55675 -29.78472,-0.61076 -59.86641,-10.79887 -80.76966,-31.70212 -50.38712,-50.38712 -33.9513,-115.18432 -27.80682,-133.76176 l -168.408818,1.95511 -9.320758,168.81515 459.362856,25.36272 8e-4,-39.19824 852.3451,-10e-4 100.0009,-100.00047 299.9954,-6.7e-4 z M 307.59448,760.38034 c -2.49634,-0.25211 -5.02925,-0.38017 -7.5941,-0.38017 -41.03757,0 -74.09174,33.05301 -74.09174,74.09058 0,41.03756 33.05313,74.08978 74.09069,74.08978 41.03757,0 74.09174,-33.05302 74.09174,-74.09058 0,-38.47271 -29.05124,-69.92791 -66.49659,-73.70961 z m 914.67962,61.68896 5.4508,5.86019 -26.1475,24.31033 -766.56749,1.76028 -0.0199,-7.99959 763.43349,-1.75336 z"
       transform="rotate(-3.1602522,2183.8448,1230.8078)"
       inkscape:export-filename="bg-bottom-0.svg"
       inkscape:export-xdpi="96"
       inkscape:export-ydpi="96" />
  </g>
</svg>
