<?xml version="1.0" encoding="UTF-8" standalone="no"?>
<!-- Created with Inkscape (http://www.inkscape.org/) -->

<svg
   width="1920.0005"
   height="271.09583"
   viewBox="0 0 1920.0005 271.09583"
   version="1.1"
   id="svg1"
   inkscape:version="1.3 (0e150ed6c4, 2023-07-21)"
   sodipodi:docname="website_pattern.svg"
   xmlns:inkscape="http://www.inkscape.org/namespaces/inkscape"
   xmlns:sodipodi="http://sodipodi.sourceforge.net/DTD/sodipodi-0.dtd"
   xmlns="http://www.w3.org/2000/svg"
   xmlns:svg="http://www.w3.org/2000/svg">
  <sodipodi:namedview
     id="namedview1"
     pagecolor="#000000"
     bordercolor="#000000"
     borderopacity="0.25"
     inkscape:showpageshadow="2"
     inkscape:pageopacity="0.0"
     inkscape:pagecheckerboard="0"
     inkscape:deskcolor="#d1d1d1"
     inkscape:document-units="px"
     showgrid="false"
     inkscape:zoom="0.43347119"
     inkscape:cx="1092.3448"
     inkscape:cy="773.98454"
     inkscape:window-width="1920"
     inkscape:window-height="1011"
     inkscape:window-x="0"
     inkscape:window-y="0"
     inkscape:window-maximized="1"
     inkscape:current-layer="g51"
     borderlayer="true">
    <inkscape:grid
       id="grid1"
       units="px"
       originx="4.8558911e-07"
       originy="-808.9043"
       spacingx="5"
       spacingy="5"
       empcolor="#0099e5"
       empopacity="0.30196078"
       color="#0099e5"
       opacity="0.14901961"
       empspacing="5"
       dotted="false"
       gridanglex="30"
       gridanglez="30"
       visible="false" />
  </sodipodi:namedview>
  <defs
     id="defs1" />
  <g
     inkscape:groupmode="layer"
     id="g51"
     inkscape:label="Finish"
     transform="translate(4.8558911e-7,-808.9043)">
    <path
       id="path70"
       style="color:#000000;display:inline;opacity:0.5;fill:#ff0000;stroke:none;-inkscape-stroke:none"
       inkscape:label="Pow"
       d="m 1943.6603,795.00045 -1557.05536,-7.7e-4 -0.002,2.34718 c -14.35234,-33.66315 -47.78419,-57.34591 -86.60311,-57.34591 -13.03764,0 -25.46383,2.67439 -36.7681,7.49809 l -239.872745,0.003 -0.82801,14.99669 216.542075,0.002 c -20.26693,17.27772 -33.16513,42.96127 -33.16513,71.59106 0,51.84637 42.24636,94.09008 94.09273,94.09008 51.84638,0 94.09181,-42.24236 94.09181,-94.08872 0,-10.14971 -1.63862,-19.92366 -4.63172,-29.09256 l 1374.75486,-0.002 -40.8752,41.00035 -299.9954,6.7e-4 -100.0009,100.00047 -852.34506,10e-4 -8e-4,39.19824 8.00149,0.44178 2.4e-4,-31.64185 847.65613,0.002 100.001,-100.00242 300.003,0.002 48.8538,-49.00041 167.5948,-9.3e-4 z M 307.59448,760.38034 c 37.44538,3.78171 66.49659,35.23686 66.49659,73.70961 0,41.0376 -33.05413,74.09058 -74.09174,74.09058 -41.0376,0 -74.09069,-33.05218 -74.09069,-74.08978 0,-41.03761 33.05413,-74.09058 74.09174,-74.09058 2.56485,0 5.09775,0.12806 7.5941,0.38017 z m 914.67962,61.68896 -23.8507,22.17785 -763.43344,1.75336 0.0199,7.99959 766.56754,-1.76028 26.1475,-24.31033 z m -1021.2226,-41.13872 -179.653798,2.08539 -0.442,8.00538 168.408818,-1.95511 c -6.14448,18.57746 -22.58035,83.37459 27.80682,133.76176 20.90327,20.90327 50.98491,31.09136 80.76966,31.70212 29.78474,0.61075 59.46152,-8.30999 79.7357,-26.55675 51.40156,-46.26142 41.25745,-103.6879 41.25745,-103.6879 l -7.86813,1.42974 c 0,0 9.85663,52.57315 -38.7415,96.31147 -18.33111,16.498 -46.15579,25.07773 -74.21952,24.50227 -28.06374,-0.57545 -56.17875,-10.25998 -75.27537,-29.3566 -55.75223,-55.75222 -24.1404,-130.62127 -24.1404,-130.62127 z"
       transform="rotate(-3.1602522,2183.8448,1230.8078)" />
  </g>
</svg>
