<?xml version="1.0" encoding="UTF-8" standalone="no"?>
<svg
   class="ionicon"
   viewBox="0 0 512 512"
   version="1.1"
   id="svg2"
   sodipodi:docname="logo-mastodon.svg"
   inkscape:export-filename="logo-mastodon.svg"
   inkscape:export-xdpi="96"
   inkscape:export-ydpi="96"
   width="512"
   height="512"
   inkscape:version="1.3.2 (091e20ef0f, 2023-11-25)"
   xmlns:inkscape="http://www.inkscape.org/namespaces/inkscape"
   xmlns:sodipodi="http://sodipodi.sourceforge.net/DTD/sodipodi-0.dtd"
   xmlns="http://www.w3.org/2000/svg"
   xmlns:svg="http://www.w3.org/2000/svg"
   xmlns:rdf="http://www.w3.org/1999/02/22-rdf-syntax-ns#"
   xmlns:cc="http://creativecommons.org/ns#"
   xmlns:dc="http://purl.org/dc/elements/1.1/">
  <defs
     id="defs2" />
  <sodipodi:namedview
     id="namedview2"
     pagecolor="#ffffff"
     bordercolor="#000000"
     borderopacity="0.25"
     inkscape:showpageshadow="2"
     inkscape:pageopacity="0.0"
     inkscape:pagecheckerboard="0"
     inkscape:deskcolor="#d1d1d1"
     inkscape:zoom="0.11313708"
     inkscape:cx="1224.1786"
     inkscape:cy="-123.74369"
     inkscape:window-width="1920"
     inkscape:window-height="1080"
     inkscape:window-x="0"
     inkscape:window-y="-37"
     inkscape:window-maximized="1"
     inkscape:current-layer="svg2" />
  <title
     id="title1">Logo Instagram</title>
  <path
     d="M 471.9863,128.11067 C 465.27861,78.790033 421.82281,39.922045 370.30933,32.390461 361.61841,31.117779 328.68964,26.48619 252.41043,26.48619 h -0.56967 c -76.2998,0 -92.66944,4.631589 -101.36036,5.904271 -50.07933,7.322962 -95.812778,42.247844 -106.908652,92.152149 -5.33702,24.57682 -5.906568,51.82422 -4.915127,76.81827 1.413335,35.843 1.687574,71.62303 4.978391,107.32008 2.275011,23.71171 6.243717,47.23453 11.876397,70.39188 10.547396,42.76961 53.243381,78.36191 95.074331,92.88307 44.78639,15.1432 92.95016,17.65668 139.0995,7.26029 5.07637,-1.16817 10.09743,-2.52466 15.0614,-4.06829 11.20145,-3.52569 24.34377,-7.46921 34.00513,-14.3958 0.1324,-0.0971 0.24128,-0.22245 0.31778,-0.36723 0.0765,-0.14418 0.11946,-0.30425 0.12476,-0.46727 v -34.59067 c -0.002,-0.15242 -0.0412,-0.30249 -0.10714,-0.43902 -0.0689,-0.13654 -0.16713,-0.25658 -0.28895,-0.35016 -0.12123,-0.0942 -0.26247,-0.16007 -0.41253,-0.19361 -0.15066,-0.0353 -0.30661,-0.0294 -0.45667,0.002 -29.56728,6.98546 -59.86605,10.48701 -90.26485,10.4317 -52.31503,0 -66.3854,-24.55563 -70.41484,-34.779 -3.23849,-8.83509 -5.29529,-18.05095 -6.11743,-27.41395 -0.005,-0.15713 0.0236,-0.31426 0.0854,-0.45844 0.0641,-0.1436 0.16243,-0.2707 0.28544,-0.37016 0.12357,-0.0995 0.26893,-0.1689 0.4243,-0.20244 0.15536,-0.0353 0.31661,-0.0294 0.4708,0.0118 29.07469,6.93779 58.87912,10.43936 88.7883,10.4317 7.19319,0 14.36521,0 21.559,-0.18773 30.08102,-0.83449 61.78629,-2.35751 91.38239,-8.07418 0.73857,-0.14594 1.47654,-0.27129 2.10976,-0.45902 46.68253,-8.86689 91.10815,-36.69809 95.62252,-107.17413 0.16889,-2.77476 0.59084,-29.06233 0.59084,-31.94126 0.0236,-9.78493 3.18554,-69.41145 -0.46432,-106.04715 z m -71.849,175.85526 H 351.05016 V 185.04598 c 0,-25.03583 -10.54762,-37.80386 -32.00127,-37.80386 -23.58402,0 -35.39692,15.10496 -35.39692,44.9388 v 65.09306 h -48.79228 v -65.09306 c 0,-29.83384 -11.83408,-44.9388 -35.41811,-44.9388 -21.32713,0 -31.98009,12.76803 -32.00128,37.80386 V 303.96593 H 118.39496 V 181.43674 c 0,-25.03585 6.46229,-44.92529 19.38627,-59.66889 13.33181,-14.70831 30.81958,-22.260491 52.5263,-22.260491 25.12352,0 44.10902,9.554841 56.76582,28.645091 l 12.21425,20.27901 12.23486,-20.27901 c 12.6568,-19.09025 31.6423,-28.645091 56.72404,-28.645091 21.68553,0 39.17272,7.552181 52.54689,22.260491 12.92457,14.72949 19.38627,34.61892 19.38627,59.66889 z"
     fill="inherit"
     id="path1-3"
     style="stroke-width:5.88497" />
  <metadata
     id="metadata1">
    <rdf:RDF>
      <cc:Work
         rdf:about="">
        <dc:title>Logo Instagram</dc:title>
      </cc:Work>
    </rdf:RDF>
  </metadata>
</svg>
