<?xml version="1.0" encoding="UTF-8" standalone="no"?>
<svg
   class="ionicon"
   viewBox="0 0 512 512"
   version="1.1"
   id="svg2"
   sodipodi:docname="logo-bluesky.svg"
   inkscape:export-filename="logo-mastodon.svg"
   inkscape:export-xdpi="96"
   inkscape:export-ydpi="96"
   xml:space="preserve"
   width="512"
   height="512"
   inkscape:version="1.3.2 (091e20ef0f, 2023-11-25)"
   xmlns:inkscape="http://www.inkscape.org/namespaces/inkscape"
   xmlns:sodipodi="http://sodipodi.sourceforge.net/DTD/sodipodi-0.dtd"
   xmlns="http://www.w3.org/2000/svg"
   xmlns:svg="http://www.w3.org/2000/svg"
   xmlns:rdf="http://www.w3.org/1999/02/22-rdf-syntax-ns#"
   xmlns:cc="http://creativecommons.org/ns#"
   xmlns:dc="http://purl.org/dc/elements/1.1/"><defs
     id="defs2" /><sodipodi:namedview
     id="namedview2"
     pagecolor="#ffffff"
     bordercolor="#000000"
     borderopacity="0.25"
     inkscape:showpageshadow="2"
     inkscape:pageopacity="0.0"
     inkscape:pagecheckerboard="0"
     inkscape:deskcolor="#d1d1d1"
     inkscape:zoom="0.6015625"
     inkscape:cx="68.155844"
     inkscape:cy="428.88312"
     inkscape:window-width="1920"
     inkscape:window-height="1080"
     inkscape:window-x="0"
     inkscape:window-y="-37"
     inkscape:window-maximized="1"
     inkscape:current-layer="svg2" /><title
     id="title1">Logo Instagram</title><path
     style="fill:#000000;stroke-width:1.47594"
     d="M 151.49984,455.25341 C 134.87676,449.09819 118.12662,436.94852 101.04043,418.6528 88.624821,405.35829 83.009563,396.21456 78.724049,382.31346 68.741658,349.93309 90.260161,321.36217 135.72745,306.62793 l 10.36693,-3.35955 -11.50085,-0.066 C 101.46617,303.01219 70.864165,288.99125 53.626451,266.10562 40.05645,248.08941 37.208881,236.45082 31.811194,176.94251 26.762923,121.28638 25.68688,100.35825 27.291727,89.042655 28.741406,78.82113 32.678876,68.888536 37.41491,63.506184 c 3.754185,-4.266525 12.983282,-8.409853 20.792836,-9.334779 15.905903,-1.883821 45.812584,9.389493 67.223314,25.339806 21.44555,15.976261 52.82178,47.937049 75.36389,76.767979 15.29687,19.56442 42.26329,59.66602 49.37355,73.42313 2.83046,5.47648 5.47839,9.95721 5.88428,9.95721 0.40589,0 2.97648,-4.32907 5.71243,-9.62016 6.64742,-12.85552 28.44146,-45.92485 42.50508,-64.4954 25.5494,-33.73712 58.55781,-68.205891 81.53982,-85.147277 30.9581,-22.821033 62.79579,-31.712885 80.74643,-22.551413 6.83563,3.488701 9.516,6.353819 13.66473,14.606691 6.88388,13.693643 6.89479,29.282639 0.0731,104.490539 -5.39768,59.50831 -8.24526,71.1469 -21.81526,89.16311 -17.25287,22.90574 -47.98767,36.97402 -80.96708,37.06114 l -11.50084,0.0304 13.28356,4.47545 c 40.48379,13.63957 61.54719,40.13895 55.40861,69.70831 -5.38346,25.93196 -34.66817,58.75471 -66.47824,74.50979 -10.74743,5.32304 -11.54223,5.48263 -27.30512,5.48263 -15.01737,0 -16.83853,-0.31739 -24.27356,-4.23035 -21.20877,-11.16193 -41.04058,-39.13529 -54.81346,-77.31597 -2.70867,-7.5089 -5.30975,-13.65255 -5.78019,-13.65255 -0.47042,0 -3.07151,6.14365 -5.7802,13.65255 -13.79732,38.2485 -33.76984,66.38736 -54.81343,77.22549 -10.91161,5.61982 -31.88961,6.67017 -43.95931,2.20099 z"
     id="path2"
     sodipodi:nodetypes="sssscsssssssssssssssssscsssssssssss" /><metadata
     id="metadata1"><rdf:RDF><cc:Work
         rdf:about=""><dc:title>Logo Instagram</dc:title></cc:Work></rdf:RDF></metadata></svg>
